<svg width="126" height="125" viewBox="0 0 126 125" fill="none" xmlns="http://www.w3.org/2000/svg">
<path fill-rule="evenodd" clip-rule="evenodd" d="M1.73907 73.6123C1.73907 73.6123 36.4605 73.6123 42.0159 73.6123C47.5713 73.6123 51.5063 77.2001 51.7379 83.3343C51.7379 85.8804 51.7379 97.2228 51.7379 97.2228C51.7379 97.2228 51.6434 98.8721 49.7414 98.9589C47.6651 99.0457 47.5713 97.2228 47.5713 97.2228C47.5713 97.2228 47.5713 88.0088 47.5713 83.5079C47.5713 80.1979 44.8516 77.7789 41.8423 77.7789C34.4497 77.7789 1.73907 77.7789 1.73907 77.7789C1.73907 77.7789 0.00300455 77.3449 0.00300455 75.6956C-0.0837989 73.8727 1.73907 73.6123 1.73907 73.6123Z" fill="#FFB150"/>
<path fill-rule="evenodd" clip-rule="evenodd" d="M73.6123 123.09V80.2093C73.6123 80.2093 74.0463 78.4732 75.6956 78.4732C77.5185 78.3864 77.7789 80.2093 77.7789 80.2093V123.264C77.7789 123.264 77.4317 125 75.6956 125C73.9595 125 73.6123 123.09 73.6123 123.09Z" fill="#FFB150"/>
<path fill-rule="evenodd" clip-rule="evenodd" d="M97.5701 77.7788C97.5701 77.7788 62.8487 77.7788 57.2933 77.7788C51.7379 77.7788 47.8029 74.1911 47.5713 68.0568C47.5713 65.5107 47.5713 54.1683 47.5713 54.1683C47.5713 54.1683 47.6657 52.519 49.5678 52.4322C51.6441 52.3454 51.7379 54.1683 51.7379 54.1683C51.7379 54.1683 51.7379 63.3823 51.7379 67.8832C51.7379 71.1932 54.4576 73.6122 57.4669 73.6122C64.8594 73.6122 97.5701 73.6122 97.5701 73.6122C97.5701 73.6122 99.3062 74.0463 99.3062 75.6955C99.393 77.5184 97.5701 77.7788 97.5701 77.7788Z" fill="#FFB150"/>
<path fill-rule="evenodd" clip-rule="evenodd" d="M77.7789 27.7801C77.7789 27.7801 77.7789 36.4604 77.7789 42.0159C77.7789 47.5713 74.1912 51.5063 68.0569 51.7378C65.5108 51.7378 54.1684 51.7378 54.1684 51.7378C54.1684 51.7378 52.5191 51.6434 52.4323 49.7414C52.3455 47.665 54.1684 47.5713 54.1684 47.5713C54.1684 47.5713 63.3824 47.5713 67.8833 47.5713C71.1933 47.5713 73.6124 44.8516 73.6124 41.8422C73.6124 34.4497 73.6124 27.7801 73.6124 27.7801C73.6124 27.7801 74.0464 26.044 75.6957 26.044C77.5185 25.9572 77.7789 27.7801 77.7789 27.7801Z" fill="#FFB150"/>
<path fill-rule="evenodd" clip-rule="evenodd" d="M123.611 47.5713C123.611 47.5713 88.8897 47.5713 83.3343 47.5713C77.7789 47.5713 73.8439 51.1591 73.6123 57.2933C73.6123 59.8394 73.6123 71.1818 73.6123 71.1818C73.6123 71.1818 73.7067 72.8311 75.6088 72.9179C77.6851 73.0047 77.7789 71.1818 77.7789 71.1818C77.7789 71.1818 77.7789 61.9678 77.7789 57.4669C77.7789 54.1569 80.4986 51.7379 83.5079 51.7379C90.9004 51.7379 123.611 51.7379 123.611 51.7379C123.611 51.7379 125.347 51.3038 125.347 49.6546C125.434 47.8317 123.611 47.5713 123.611 47.5713Z" fill="#FFB150"/>
<path fill-rule="evenodd" clip-rule="evenodd" d="M51.7379 1.73907C51.7379 1.73907 51.7379 36.4605 51.7379 42.0159C51.7379 47.5713 48.1502 51.5063 42.0159 51.7379C39.4698 51.7379 28.1274 51.7379 28.1274 51.7379C28.1274 51.7379 26.4781 51.6434 26.3913 49.7414C26.3045 47.6651 28.1274 47.5713 28.1274 47.5713C28.1274 47.5713 37.3414 47.5713 41.8423 47.5713C45.1523 47.5713 47.5714 44.8516 47.5714 41.8423C47.5714 34.4497 47.5714 1.73907 47.5714 1.73907C47.5714 1.73907 48.0054 0.00300455 49.6546 0.00300455C51.4775 -0.0837989 51.7379 1.73907 51.7379 1.73907Z" fill="#FFB150"/>
</svg>
